<svg width="64" height="64" viewBox="-7 -7 64 64" fill="none" xmlns="http://www.w3.org/2000/svg">
<path d="M34.2277 23.8253H34.6262C35.2496 23.8253 35.7512 23.3336 35.7512 22.7224V16.84C35.7512 16.3942 35.4793 15.9898 35.0574 15.8198C34.6355 15.6497 34.1527 15.7417 33.8293 16.0588L31.8793 17.9705C27.773 13.9953 21.159 14.0091 17.0762 18.0165C12.9746 22.0376 12.9746 28.5542 17.0762 32.5753C21.1777 36.5964 27.8246 36.5964 31.9262 32.5753C32.5121 32.0008 32.5121 31.0679 31.9262 30.4935C31.3402 29.919 30.3887 29.919 29.8027 30.4935C26.873 33.3657 22.1246 33.3657 19.1949 30.4935C16.2652 27.6213 16.2652 22.9659 19.1949 20.0937C22.1105 17.2352 26.8215 17.2214 29.7559 20.0477L27.8293 21.9411C27.5059 22.2582 27.4121 22.7315 27.5855 23.1451C27.759 23.5587 28.1715 23.8253 28.6262 23.8253H34.2277Z" fill="#777777"/>
</svg>
