<svg width="64" height="64" viewBox="-7 -7 64 64" fill="none" xmlns="http://www.w3.org/2000/svg">
<path d="M37.4567 19.1599C37.1577 18.1129 36.2767 17.2883 35.158 17.0085C33.1304 16.5 25 16.5 25 16.5C25 16.5 16.8696 16.5 14.842 17.0085C13.7233 17.2884 12.8423 18.1129 12.5433 19.1599C12 21.0577 12 25.0172 12 25.0172C12 25.0172 12 28.9767 12.5433 30.8744C12.8423 31.9214 13.7233 32.7117 14.842 32.9915C16.8696 33.5 25 33.5 25 33.5C25 33.5 33.1304 33.5 35.158 32.9915C36.2767 32.7117 37.1577 31.9214 37.4567 30.8744C38 28.9767 38 25.0172 38 25.0172C38 25.0172 38 21.0577 37.4567 19.1599ZM22.3409 28.6121V21.4223L29.1363 25.0173L22.3409 28.6121Z" fill="#777777"/>
</svg>
