<svg width="32" height="32" viewBox="-1 -1 32 32" fill="none" xmlns="http://www.w3.org/2000/svg">
<path d="M12.2892 24.0739C11.6232 24.0739 10.9572 23.7846 10.5015 23.206C9.69527 22.2055 9.90559 20.6865 10.8404 19.8186L15.152 15.8164C15.7128 15.2981 15.7128 14.394 15.152 13.8756L10.8287 9.81315C9.94065 8.96932 9.70696 7.5348 10.4197 6.53426C11.2493 5.377 12.8501 5.23234 13.855 6.17261L19.7674 11.7057C20.6204 12.5014 21.1111 13.6466 21.1111 14.84C21.1111 16.0334 20.6204 17.1666 19.7557 17.9622L13.8433 23.4591C13.3993 23.869 12.8501 24.0739 12.2892 24.0739Z" fill="#CCCCCC"/>
</svg>
