<svg width="32" height="32" viewBox="-4 -4 32 32" fill="none" xmlns="http://www.w3.org/2000/svg">
<path d="M17.8542 11.5C17.952 11.4 17.952 11.4 17.8542 11.5C18.9292 10.4 19.5156 9 19.5156 7.5C19.5156 4.5 17.0724 2 14.1407 2H9.15669H7.20218H5.54085H3.97725C3.3909 2 3 2.4 3 3C3 3.6 3.3909 4 3.97725 4H4.5636V12V20H3.97725C3.3909 20 3 20.4 3 21C3 21.6 3.3909 22 3.97725 22H5.54085H7.10446H9.05896H15.6065C17.0724 22 18.4406 21.4 19.4178 20.4C20.3951 19.4 20.9814 18 20.9814 16.5C21.1769 14.2 19.8087 12.3 17.8542 11.5ZM17.5611 7.5C17.5611 8.4 17.1701 9.3 16.5838 10C15.8997 10.7 15.1179 11 14.1407 11H10.1339V4H14.1407C16.0952 4 17.5611 5.6 17.5611 7.5ZM6.51811 20V12V4H7.10446H8.08171V12V20H7.10446H6.51811ZM18.1474 19C17.4633 19.7 16.6815 20 15.7043 20H10.1339V13H15.7043C17.5611 13 19.1247 14.6 19.1247 16.5C19.2224 17.4 18.8315 18.3 18.1474 19Z" fill="#777777"/>
</svg>
