<svg width="32" height="32" viewBox="-1 -1 32 32" fill="none" xmlns="http://www.w3.org/2000/svg">
<path transform="rotate(90 15 15)" d="M24.0739 17.7108C24.0739 18.3768 23.7846 19.0428 23.206 19.4985C22.2055 20.3047 20.6866 20.0944 19.8186 19.1596L15.8164 14.848C15.2981 14.2872 14.394 14.2872 13.8756 14.848L9.81315 19.1713C8.96932 20.0594 7.5348 20.293 6.53426 19.5803C5.377 18.7507 5.23234 17.1499 6.17261 16.145L11.7058 10.2326C12.5014 9.37964 13.6466 8.88889 14.84 8.88889C16.0334 8.88889 17.1666 9.37964 17.9622 10.2443L23.4591 16.1567C23.869 16.6007 24.0739 17.1499 24.0739 17.7108Z" fill="white"/>
</svg>
