<svg xmlns="http://www.w3.org/2000/svg" width="16" height="16" viewBox="0 0 16 16" shape-rendering="crispEdges"><path fill="#000000" d="M2 1h9v1h-9zM2 2h1v1h-1zM10 2h2v1h-2zM2 3h1v1h-1zM10 3h1v1h-1zM12 3h1v1h-1zM2 4h1v1h-1zM10 4h4v1h-4zM2 5h1v1h-1zM4 5h5v1h-5zM13 5h1v1h-1zM2 6h1v1h-1zM13 6h1v1h-1zM2 7h1v1h-1zM4 7h7v1h-7zM13 7h1v1h-1zM2 8h1v1h-1zM13 8h1v1h-1zM2 9h1v1h-1zM4 9h6v1h-6zM13 9h1v1h-1zM2 10h1v1h-1zM13 10h1v1h-1zM2 11h1v1h-1zM4 11h8v1h-8zM13 11h1v1h-1zM2 12h1v1h-1zM13 12h1v1h-1zM2 13h1v1h-1zM13 13h1v1h-1zM2 14h12v1h-12z"/><path fill="#ffffff" d="M3 2h7v1h-7zM3 3h7v1h-7zM3 4h7v1h-7zM3 5h1v1h-1zM9 5h4v1h-4zM3 6h10v1h-10zM3 7h1v1h-1zM11 7h2v1h-2zM3 8h10v1h-10zM3 9h1v1h-1zM10 9h3v1h-3zM3 10h10v1h-10zM3 11h1v1h-1zM12 11h1v1h-1zM3 12h10v1h-10zM3 13h10v1h-10z"/><path fill="#c0c0c0" d="M11 3h1v1h-1z"/></svg>
