<?xml version="1.0" encoding="UTF-8"?>
<svg xmlns="http://www.w3.org/2000/svg" width="590" height="600" viewBox="0 0 590 600">
  <defs>
    <linearGradient id="outer-metal" x1="0" y1="0" x2="0" y2="1">
      <stop offset="0" stop-color="#9da1a7"/>
      <stop offset="0.025" stop-color="#747982"/>
      <stop offset="0.055" stop-color="#e0e2e5"/>
      <stop offset="0.085" stop-color="#8a8d94"/>
      <stop offset="0.13" stop-color="#66646f"/>
      <stop offset="0.22" stop-color="#858991"/>
      <stop offset="0.78" stop-color="#848890"/>
      <stop offset="0.87" stop-color="#60616a"/>
      <stop offset="0.915" stop-color="#7e8188"/>
      <stop offset="0.95" stop-color="#e1e3e5"/>
      <stop offset="0.98" stop-color="#b8bbc0"/>
      <stop offset="1" stop-color="#72767c"/>
    </linearGradient>
    <linearGradient id="inner-bevel" x1="0" y1="0" x2="0" y2="1">
      <stop offset="0" stop-color="#4a425c"/>
      <stop offset="0.12" stop-color="#2c2738"/>
      <stop offset="0.5" stop-color="#24202d"/>
      <stop offset="0.88" stop-color="#33303d"/>
      <stop offset="1" stop-color="#666671"/>
    </linearGradient>
    <linearGradient id="enamel" x1="0" y1="0" x2="0" y2="1">
      <stop offset="0" stop-color="#3a2f57"/>
      <stop offset="0.18" stop-color="#231b3b"/>
      <stop offset="0.58" stop-color="#171226"/>
      <stop offset="1" stop-color="#1d1632"/>
    </linearGradient>
    <linearGradient id="glass" x1="0" y1="0" x2="0" y2="1">
      <stop offset="0" stop-color="#ffffff" stop-opacity="0.5"/>
      <stop offset="0.54" stop-color="#ffffff" stop-opacity="0.14"/>
      <stop offset="1" stop-color="#ffffff" stop-opacity="0"/>
    </linearGradient>
    <filter id="mark-shadow" x="-20%" y="-20%" width="140%" height="150%">
      <feGaussianBlur stdDeviation="7"/>
    </filter>
  </defs>

  <!-- Thin metal and dark trim follow the installed iPhone 2G icon. The old
       broad white rim read as an extra iOS gloss halo at SpringBoard size. -->
  <rect x="8" y="7" width="574" height="586" rx="120" fill="#111019" opacity="0.42"/>
  <rect x="5" y="4" width="580" height="592" rx="122" fill="url(#outer-metal)"/>
  <rect x="20" y="19" width="550" height="562" rx="108" fill="url(#inner-bevel)"
        stroke="#d8dade" stroke-opacity="0.22" stroke-width="4"/>
  <rect x="36" y="36" width="518" height="528" rx="94" fill="url(#enamel)"
        stroke="#171222" stroke-width="7"/>
  <rect x="45" y="45" width="500" height="510" rx="84" fill="none"
        stroke="#a29cad" stroke-opacity="0.24" stroke-width="5"/>

  <!-- Curved glass highlight is baked so UIPrerenderedIcon can remain enabled. -->
  <path d="M63 73 Q295 39 527 73 L527 208 Q295 174 63 222 Z" fill="url(#glass)"/>
  <path d="M72 79 Q295 50 518 79" fill="none" stroke="#ffffff"
        stroke-opacity="0.32" stroke-width="7" stroke-linecap="round"/>

  <!-- Pocket mark: the 32-unit drawing from site/assets/favicon.svg, mounted
       rather than redrawn, so the retina icon cannot drift from the source. -->
  <rect x="105" y="187" width="380" height="246" rx="88" fill="#000000" opacity="0.34"
        filter="url(#mark-shadow)"/>
  <g data-brand-source="site/assets/favicon.svg"
     transform="translate(88.99 114.48) scale(12.8758)">
    <rect x="2" y="6" width="28" height="20" rx="6" fill="none" stroke="#ffd23f" stroke-width="2.6" stroke-linejoin="round"/>
    <circle cx="10" cy="16" r="3.1" fill="#ff5f9e"/>
    <rect x="16" y="12.6" width="10" height="2.2" rx="1.1" fill="#3fd0e8"/>
    <rect x="16" y="17.2" width="6.5" height="2.2" rx="1.1" fill="#ff5f9e"/>
  </g>
</svg>
